<svg width="448" height="783" viewBox="0 0 2448 783" fill="none" xmlns="http://www.w3.org/2000/svg">
<path d="M2443 163.753V601.179C2441.01 600.556 2438.58 599.799 2435.73 598.917C2426.75 596.136 2413.59 592.111 2396.83 587.129C2363.33 577.165 2315.47 563.37 2258.04 548.044C2143.2 517.395 1990.02 480.599 1836.79 456.062C1683.68 431.544 1530.03 419.18 1414.46 437.687C1356.68 446.939 1307.9 463.984 1273.47 491.549C1238.82 519.295 1219 557.481 1219 608C1219 655.482 1200.57 690.796 1168.28 716.644C1135.77 742.673 1088.93 759.316 1031.96 768.438C918.03 786.682 765.682 774.546 612.792 750.063C460.023 725.6 307.203 688.896 192.54 658.294C135.218 642.996 87.4512 629.227 54.02 619.285C37.3047 614.315 24.1741 610.3 15.2258 607.53C10.7516 606.145 7.32308 605.071 5.01486 604.343C5.01023 604.342 5.0056 604.341 5.00098 604.339V544.002V240.002V166.655C7.00954 167.233 9.47585 167.939 12.3797 168.764C21.36 171.318 34.5252 175.014 51.2774 179.589C84.7813 188.739 132.637 201.407 190.061 215.481C304.893 243.626 458.06 277.415 611.274 299.947C764.375 322.462 917.974 333.808 1033.48 316.822C1091.21 308.332 1139.95 292.694 1174.37 267.388C1209.04 241.897 1229 206.69 1229 160C1229 116.69 1247.29 84.3969 1279.56 60.6689C1312.08 36.7567 1358.96 21.4569 1415.98 13.0718C1529.97 -3.69226 1682.38 7.46174 1835.27 29.9468C1988.06 52.4153 2140.89 86.1264 2255.56 114.231C2312.89 128.282 2360.66 140.927 2394.09 150.058C2410.81 154.623 2423.94 158.31 2432.89 160.854C2437.3 162.108 2440.69 163.085 2443 163.753Z" stroke="black" stroke-width="10"/>
</svg>
