<svg width="900" height="1800" viewBox="0 0 900 1800" fill="none" xmlns="http://www.w3.org/2000/svg">
<mask id="path-1-inside-1_202_8" fill="white">
<path d="M900 0C781.81 0 664.778 23.2792 555.585 68.5084C446.392 113.738 347.177 180.031 263.604 263.604C180.031 347.177 113.738 446.392 68.5084 555.585C23.2792 664.778 -5.16623e-06 781.81 0 900C5.16624e-06 1018.19 23.2792 1135.22 68.5084 1244.42C113.738 1353.61 180.031 1452.82 263.604 1536.4C347.177 1619.97 446.392 1686.26 555.585 1731.49C664.778 1776.72 781.81 1800 900 1800L900 900L900 0Z"/>
</mask>
<path d="M900 0C781.81 0 664.778 23.2792 555.585 68.5084C446.392 113.738 347.177 180.031 263.604 263.604C180.031 347.177 113.738 446.392 68.5084 555.585C23.2792 664.778 -5.16623e-06 781.81 0 900C5.16624e-06 1018.19 23.2792 1135.22 68.5084 1244.42C113.738 1353.61 180.031 1452.82 263.604 1536.4C347.177 1619.97 446.392 1686.26 555.585 1731.49C664.778 1776.72 781.81 1800 900 1800L900 900L900 0Z" stroke="black" stroke-width="20" mask="url(#path-1-inside-1_202_8)"/>
</svg>
