<svg width="1200" height="1800" viewBox="0 0 1200 1800" fill="none" xmlns="http://www.w3.org/2000/svg">
<path d="M1195 1219.35C1195 1537.12 928.765 1795 600 1795C271.235 1795 5 1537.12 5 1219.35C5 1140.36 39.5716 1037.26 92.6565 923.418C145.664 809.748 216.799 686.045 289.28 566.039C320.719 513.985 352.443 462.577 383.035 413.003C422.881 348.432 460.807 286.974 493.681 231.255C522.767 181.958 547.995 136.996 567.216 98.139C583.514 65.1909 595.618 36.3888 602.037 12.927C627.857 55.0539 658.837 103.96 692.917 157.759C773.722 285.317 871.953 440.384 960.138 597.833C1024.33 712.454 1083.09 828.149 1125.79 935.134C1168.53 1042.21 1195 1140.14 1195 1219.35Z" stroke="black" stroke-width="10"/>
</svg>
