<svg width="1276" height="1816" viewBox="0 0 1276 1816" fill="none" xmlns="http://www.w3.org/2000/svg">
<path d="M48.1356 1567.89L553.003 147.554C580.907 69.0551 594.859 29.8058 613.062 16.6237C628.937 5.12543 647.062 5.12543 662.938 16.6237C681.14 29.8058 695.092 69.0551 722.996 147.553L1227.86 1567.89C1255.87 1646.67 1269.87 1686.06 1267.8 1718.39C1265.99 1746.59 1256.92 1772.21 1242.84 1788.88C1226.7 1808 1198.76 1808 1142.87 1808H133.132C77.2411 1808 49.2955 1808 33.1545 1788.88C19.0756 1772.21 10.0051 1746.59 8.20041 1718.39C6.13101 1686.06 20.1324 1646.67 48.1356 1567.89Z" stroke="black" stroke-width="15" stroke-linecap="round" stroke-linejoin="round"/>
</svg>
